<svg data-v-423bf9ae="" xmlns="http://www.w3.org/2000/svg" viewBox="0 0 46.485438921188816 60" class="font"><!----><!----><defs data-v-423bf9ae=""><linearGradient data-v-423bf9ae="" gradientTransform="rotate(25)" id="80b56512-1872-468b-a0e8-cdefd976ba67" x1="0%" y1="0%" x2="100%" y2="0%"><stop data-v-423bf9ae="" offset="0%" style="stop-color: rgb(78, 26, 112); stop-opacity: 1;"></stop><stop data-v-423bf9ae="" offset="100%" style="stop-color: rgb(43, 76, 242); stop-opacity: 1;"></stop></linearGradient></defs><g data-v-423bf9ae="" id="879f7115-418c-4615-af08-3a9625c3dc69" fill="url(#80b56512-1872-468b-a0e8-cdefd976ba67)" transform="matrix(5.825242610575063,0,0,5.825242610575063,-4.310678682449506,-29.3592230119201)"><path d="M5.19 5.04Q6.03 5.04 6.62 5.28Q7.21 5.52 7.77 5.95L7.77 5.95Q7.92 6.08 8.04 6.08L8.04 6.08Q8.32 6.08 8.40 5.24L8.40 5.24L8.72 5.24Q8.67 6.15 8.67 8.46L8.67 8.46L8.34 8.46Q8.19 7.55 8.06 7.15Q7.94 6.75 7.64 6.38L7.64 6.38Q7.22 5.84 6.57 5.56Q5.92 5.29 5.17 5.29L5.17 5.29Q4.26 5.29 3.58 5.89Q2.90 6.50 2.52 7.61Q2.14 8.72 2.14 10.22L2.14 10.22Q2.14 11.75 2.55 12.84Q2.95 13.93 3.68 14.50Q4.40 15.06 5.31 15.06L5.31 15.06Q6.01 15.06 6.66 14.80Q7.32 14.53 7.70 14L7.70 14Q7.98 13.61 8.11 13.16Q8.23 12.71 8.34 11.79L8.34 11.79L8.67 11.79Q8.67 14.20 8.72 15.15L8.72 15.15L8.40 15.15Q8.36 14.70 8.28 14.51Q8.20 14.32 8.06 14.32L8.06 14.32Q7.95 14.32 7.77 14.43L7.77 14.43Q7.14 14.88 6.57 15.11Q5.99 15.34 5.18 15.34L5.18 15.34Q3.85 15.34 2.85 14.74Q1.85 14.14 1.29 13.00Q0.74 11.86 0.74 10.28L0.74 10.28Q0.74 8.74 1.31 7.55Q1.88 6.36 2.89 5.70Q3.91 5.04 5.19 5.04L5.19 5.04Z"></path></g><!----><!----></svg>